<?xml version="1.0" encoding="utf-8"?>
<!-- Generator: Adobe Illustrator 17.0.0, SVG Export Plug-In . SVG Version: 6.00 Build 0)  -->
<!DOCTYPE svg PUBLIC "-//W3C//DTD SVG 1.1//EN" "http://www.w3.org/Graphics/SVG/1.1/DTD/svg11.dtd">
<svg version="1.1" id="Layer_1" xmlns="http://www.w3.org/2000/svg" xmlns:xlink="http://www.w3.org/1999/xlink" x="0px" y="0px"
	 width="576px" height="576px" viewBox="0 0 576 576" enable-background="new 0 0 576 576" xml:space="preserve">
<path fill="#A97C50" d="M512.971,407.878c-4.57-136.205-92.326-157.775-92.326-157.775h-16.374h-0.845h-16.371
	c0,0-87.755,21.57-92.329,157.775c-4.409,131.437,101.593,115.965,109.122,116.349C411.433,523.686,517.381,539.315,512.971,407.878
	z"/>
<path fill="#F0D0A4" d="M487.366,435.519c0,63.02-37.395,79.948-83.517,79.948c-46.126,0-83.513-16.928-83.513-79.948
	c0-63.024,37.387-114.117,83.513-114.117C449.971,321.402,487.366,372.495,487.366,435.519z"/>
<path fill="#A97C50" d="M-45.489,264.43c28.309,85.52-1.745,154.005-100.235,154.005c-103.632,0-123.071-67.183-99.048-154.005
	c9.366-33.849,24.949-89.617,41.671-107.327c27.871-29.517,57.089-27.166,57.089-27.166s30.966-0.841,57.351,25.467
	C-70.68,173.33-57.598,227.849-45.489,264.43z"/>
<path fill="#FFFFFF" d="M-67.829,265.363c21.711,67.255,27.123,136.51-77.728,136.51s-99.028-68.837-78.659-136.51
	c18.014-59.849,53.325-110.87,75.506-111.993C-127.585,152.301-90.525,195.056-67.829,265.363z"/>
<path fill="#C49A6C" d="M314.203,306.973"/>
<path fill="#C49A6C" d="M313.743,309.867"/>
<path fill="#C49A6C" d="M313.975,308.181"/>
<path fill="#A97C50" d="M316.115,326.874c-20.468,14.935-6.163,32.473,8.393,42.022c15.566,10.212,38.273,17.472,56.759,8.149
	c8.304-4.188,17.642-21.747,5.417-27.161c-5.946-2.633-12.821,0.562-19.007,0.753c-15.216,0.47-22.646,2.764-32.136-10.149
	C330.686,333.882,327.047,323.111,316.115,326.874z"/>
<path fill="#FFFFFF" d="M155.407,301.022c0,0-39.956,5.654-49.003-22.798c-9.047-28.453,32.289-39.492,32.289-39.492l-17.899-27.948
	L71.39,256.132l13.91,49.622l25.901,15.828l25.901-2.878L155.407,301.022z"/>
<path fill="#A97C50" d="M295.723,427.523c0,0-26.13-5.031-34.577-30.372s-5.068-96.13-5.068-96.13s5.068-63.233-3.379-98.709
	c0,0-0.563,15.819-3.942,16.356c0,0-4.505-52.959-29.282-67.6c0,0,5.348,7.147,4.69,10.438c0,0-21.938-28.3-62.303-31.81
	s-78.624,26.981-78.624,26.981s-28.871,26.986-41.156,77.662c0,0,4.607-8.117,8.775-9.214c0,0-8.775,31.59,1.536,57.477
	c0,0-1.536-8.994,2.194-14.26c0,0,6.143,58.354,50.896,65.374s49.924-32.696,49.924-32.696s-14.919,15.797-35.96,10.479
	S91.092,280.53,91.092,280.53s-4.478-23.365,10.32-34.695c14.798-11.33,37.28-7.104,37.28-7.104s23.348,3.996,37.866,32.759
	c11.236,22.259,11.56,43.71,11.56,56.889c0,0-5.78-6.012-6.937-10.405c0,0-6.705,35.839,19.191,75.839c0,0-4.856-0.231-12.486-9.942
	c0,0,4.393,25.434,26.821,45.087c0,0-11.098-4.401-15.26-9.022c0,0,17.572,33.531,52.024,54.34
	c34.451,20.81,62.08,9.017,62.08,9.017L295.723,427.523z"/>
<path fill="#F0D0A4" d="M192.878,217.821c35.97,41.688,20.522,106.994,25.056,149.267c4.209,39.244,9.005,73.479,40.289,95.468
	c14.31,10.058,32.843,14.499,50.226,13.563c-3.87-9.123-7.739-18.246-11.609-27.369c0,0-14.555-0.953-21.843-4.711
	c-32.436-16.725-37.848-55.495-42.522-85.613C225.248,311.846,227.921,258.434,192.878,217.821z"/>
<path fill="#A97C50" d="M490.535,327.698c20.468,14.935,6.163,32.473-8.393,42.022c-15.566,10.212-38.273,17.472-56.759,8.149
	c-8.304-4.188-17.642-21.747-5.417-27.161c5.946-2.633,12.821,0.562,19.007,0.753c15.216,0.47,22.646,2.764,32.136-10.149
	C475.965,334.705,479.603,323.934,490.535,327.698z"/>
<path fill="#A97C50" d="M326.9,140.022c0,0-5.623-45.567-1.308-55.895c1.559-3.731,8.906-7.539,15.194-5.378
	c10.151,3.489,26.49,38.051,26.49,38.051L326.9,140.022z"/>
<path d="M333.145,130.737v-27.803c0,0,1.399-7.51,5.421-8.451s19.653,21.081,19.653,21.081L333.145,130.737z"/>
<path fill="#A97C50" d="M482.049,140.022c0,0,5.623-45.567,1.308-55.895c-1.559-3.731-8.906-7.539-15.194-5.378
	c-10.151,3.489-26.49,38.051-26.49,38.051L482.049,140.022z"/>
<path d="M475.804,130.737v-27.803c0,0-1.399-7.51-5.421-8.451s-19.653,21.081-19.653,21.081L475.804,130.737z"/>
<path fill="#A97C50" d="M502.418,214.142c0,59.463-58.663,94.266-99.985,94.266c-43.691,0-95.159-34.804-95.159-94.266
	c0-75.886,24.051-112.968,96.748-112.968C474.084,101.174,502.418,138.256,502.418,214.142z"/>
<path fill="#C49A6C" d="M470.799,281.139"/>
<path fill="#F0D0A4" d="M337.957,283.111c18.396,16.427,42.425,25.297,64.476,25.297c21.675,0,48.117-9.581,68.366-27.269
	c-7.283-17.052-34.088-29.705-66.047-29.705C371.033,251.434,343.326,264.636,337.957,283.111
	C338.043,282.816,337.86,283.404,337.957,283.111z"/>
<path d="M415.433,251.434l-10.717-0.52l-10.717,0.52c-5.735,0-5.914,3.597-5.914,3.597v3.9c0-2.09-0.792,13.809,16.631,17.229
	c0,0,16.631-4.41,16.631-17.794v-3.336C421.347,255.031,421.167,251.434,415.433,251.434z"/>
<path fill="none" stroke="#000000" stroke-width="4" stroke-linecap="round" stroke-miterlimit="10" d="M405.02,273.181
	c0,8.985,12.065,16.255,24.131,10.077"/>
<path fill="#FFFFFF" d="M346.711,217.945c0-14.7,0-41.665,21.314-41.665s21.314,26.966,21.314,41.665H346.711z"/>
<circle fill="#9AD7D4" cx="370.589" cy="202.603" r="13.57"/>
<circle cx="370.589" cy="202.603" r="9.327"/>
<circle fill="#FFFFFF" cx="373.564" cy="199.019" r="2.092"/>
<path fill="#FFFFFF" d="M421.162,217.945c0-14.755,0-41.82,21.393-41.82s21.393,27.065,21.393,41.82H421.162z"/>
<circle fill="#9AD7D4" cx="439.624" cy="202.603" r="13.57"/>
<circle cx="439.624" cy="202.603" r="9.327"/>
<circle fill="#FFFFFF" cx="442.599" cy="199.019" r="2.092"/>
<path fill="none" stroke="#000000" stroke-width="4" stroke-linecap="round" stroke-miterlimit="10" d="M404.177,273.181
	c0,8.985-12.065,16.255-24.131,10.077"/>
<g>
	<g>
		<g>
			<path fill="#A97C50" d="M404.846,253.751"/>
		</g>
	</g>
</g>
<g>
	<path fill="#A97C50" d="M355.154,418.609c0,0-10.047-57.304-52.105-48.211c-54.974,11.884-41.136,91.413,5.486,140.775
		c0,0-30.167,13.441-23.769,29.252c6.398,15.81,73.611-10.972,73.005-23.766c0,0,0.126-9.145-5.36-8.229
		C346.929,509.342,375.951,479.365,355.154,418.609z"/>
	<path fill="#A97C50" d="M452.544,418.609c0,0,10.044-57.304,52.105-48.211c54.974,11.884,41.136,91.413-5.483,140.775
		c0,0,30.164,13.441,23.766,29.252c-6.398,15.81-73.614-10.972-73.005-23.766c0,0-0.126-9.145,5.361-8.229
		C460.77,509.342,431.747,479.365,452.544,418.609z"/>
</g>
<g>
	<g>
		<path fill="#B18C62" d="M691.383,324.629c0,0-52.588,61.678-4.883,79.616c0,0,32.404,8.638,37.887-57.179L691.383,324.629z"/>
		<path fill="#C3996C" d="M691.383,319.139c0,0-52.588,61.678-4.883,79.616c0,0,32.404,8.639,37.887-57.179L691.383,319.139z"/>
	</g>
	<g>
		<path fill="#B18C62" d="M857.854,324.629c0,0,52.589,61.678,4.883,79.616c0,0-32.404,8.638-37.887-57.179L857.854,324.629z"/>
		<path fill="#C3996C" d="M857.854,319.139c0,0,52.589,61.678,4.883,79.616c0,0-32.404,8.639-37.887-57.179L857.854,319.139z"/>
	</g>
</g>
</svg>
